<svg width="24" height="26" viewBox="0 0 24 26" fill="none" xmlns="http://www.w3.org/2000/svg">
<path d="M24 13.0074C24 16.192 22.7357 19.2461 20.4853 21.498C18.2348 23.7498 15.1826 25.0149 12 25.0149C8.8174 25.0149 5.76516 23.7498 3.51472 21.498C1.26428 19.2461 0 16.192 0 13.0074C0 9.82286 1.26428 6.76873 3.51472 4.5169C5.76516 2.26507 8.8174 1 12 1C15.1826 1 18.2348 2.26507 20.4853 4.5169C22.7357 6.76873 24 9.82286 24 13.0074ZM12.4305 9.86449C11.2635 10.3508 8.9295 11.3564 5.4315 12.8814C4.8645 13.1065 4.566 13.3286 4.539 13.5448C4.494 13.9095 4.9515 14.0536 5.574 14.2502L5.8365 14.3328C6.4485 14.5324 7.2735 14.765 7.701 14.774C8.091 14.783 8.5245 14.6239 9.003 14.2937C12.2715 12.0859 13.959 10.9707 14.064 10.9467C14.139 10.9286 14.244 10.9076 14.313 10.9707C14.3835 11.0322 14.376 11.1508 14.3685 11.1823C14.3235 11.3759 12.528 13.045 11.5995 13.9095C11.31 14.1797 11.1045 14.3703 11.0625 14.4138C10.97 14.5084 10.876 14.6015 10.7805 14.693C10.2105 15.2423 9.7845 15.6536 10.803 16.326C11.2935 16.6502 11.6865 16.9159 12.078 17.183C12.504 17.4742 12.93 17.7639 13.482 18.1271C13.6215 18.2172 13.7565 18.3147 13.887 18.4078C14.3835 18.762 14.832 19.0802 15.3825 19.0292C15.7035 18.9991 16.035 18.699 16.203 17.7984C16.6005 15.6716 17.382 11.0652 17.562 9.16656C17.573 9.00872 17.5664 8.85016 17.5425 8.69376C17.5284 8.56757 17.4673 8.4513 17.3715 8.36806C17.235 8.27379 17.0723 8.22495 16.9065 8.22848C16.4565 8.23598 15.762 8.47763 12.4305 9.86449Z" fill="black"/>
</svg>
