<svg width="32" height="33" viewBox="0 0 32 33" fill="none" xmlns="http://www.w3.org/2000/svg">
<path d="M27.9294 11.0801C27.916 10.0697 27.7269 9.06924 27.3708 8.12362C27.0619 7.32599 26.5901 6.60161 25.9857 5.99674C25.3812 5.39188 24.6572 4.91984 23.8601 4.61078C22.9272 4.26037 21.9417 4.0709 20.9454 4.05043C19.6628 3.99306 19.2561 3.97705 16.0001 3.97705C12.7441 3.97705 12.3268 3.97705 11.0534 4.05043C10.0576 4.07105 9.07256 4.26052 8.14009 4.61078C7.34284 4.91962 6.61879 5.39159 6.01427 5.99648C5.40975 6.60137 4.93808 7.32587 4.62943 8.12362C4.27854 9.05637 4.08959 10.0423 4.07076 11.0388C4.01343 12.3236 3.99609 12.7305 3.99609 15.9885C3.99609 19.2465 3.99609 19.6628 4.07076 20.9382C4.09076 21.9362 4.27876 22.9208 4.62943 23.856C4.9386 24.6535 5.41062 25.3777 6.01534 25.9824C6.62006 26.587 7.34418 27.0588 8.14143 27.3675C9.07134 27.732 10.0566 27.9351 11.0548 27.9679C12.3388 28.0253 12.7454 28.0426 16.0014 28.0426C19.2574 28.0426 19.6748 28.0426 20.9481 27.9679C21.9443 27.9483 22.9299 27.7592 23.8628 27.4089C24.6597 27.0995 25.3834 26.6273 25.9879 26.0225C26.5923 25.4177 27.0642 24.6935 27.3734 23.896C27.7241 22.9621 27.9121 21.9775 27.9321 20.9782C27.9894 19.6948 28.0068 19.2879 28.0068 16.0285C28.0041 12.7705 28.0041 12.3569 27.9294 11.0801ZM15.9921 22.1496C12.5868 22.1496 9.82809 19.3893 9.82809 15.9818C9.82809 12.5744 12.5868 9.814 15.9921 9.814C17.6269 9.814 19.1947 10.4638 20.3507 11.6205C21.5067 12.7772 22.1561 14.346 22.1561 15.9818C22.1561 17.6176 21.5067 19.1864 20.3507 20.3431C19.1947 21.4998 17.6269 22.1496 15.9921 22.1496ZM22.4014 11.0241C22.2126 11.0243 22.0256 10.9872 21.8512 10.915C21.6767 10.8427 21.5182 10.7368 21.3847 10.6032C21.2512 10.4696 21.1453 10.311 21.0731 10.1364C21.001 9.96188 20.9639 9.77478 20.9641 9.58586C20.9641 9.39707 21.0013 9.21014 21.0735 9.03573C21.1457 8.86132 21.2515 8.70284 21.3849 8.56935C21.5183 8.43586 21.6767 8.32997 21.851 8.25773C22.0253 8.18548 22.2121 8.1483 22.4008 8.1483C22.5894 8.1483 22.7762 8.18548 22.9506 8.25773C23.1249 8.32997 23.2832 8.43586 23.4166 8.56935C23.55 8.70284 23.6559 8.86132 23.7281 9.03573C23.8003 9.21014 23.8374 9.39707 23.8374 9.58586C23.8374 10.381 23.1948 11.0241 22.4014 11.0241Z" fill="black"/>
<path d="M15.9923 19.9885C18.2036 19.9885 19.9963 18.1948 19.9963 15.9821C19.9963 13.7693 18.2036 11.9756 15.9923 11.9756C13.7809 11.9756 11.9883 13.7693 11.9883 15.9821C11.9883 18.1948 13.7809 19.9885 15.9923 19.9885Z" fill="black"/>
</svg>
